<svg width="165" height="108" viewBox="0 0 165 108" fill="none" xmlns="http://www.w3.org/2000/svg">
<path d="M16.008 107.96L13.832 107.704H13.448C13.1067 107.875 12.3387 107.875 11.144 107.704C9.864 107.533 9.01067 107.405 8.584 107.32L7.816 107.064H7.688C7.51733 107.064 7.34667 107.021 7.176 106.936C7.00533 106.936 6.83466 106.893 6.664 106.808C6.06666 106.637 5.512 106.424 5 106.168C4.488 105.912 4.01867 105.656 3.592 105.4L2.312 104.632C2.22666 104.291 1.97066 103.821 1.544 103.224C1.032 102.712 0.818665 102.285 0.903999 101.944L1.416 101.688L1.544 102.2C1.8 102.541 2.056 102.883 2.312 103.224C2.48266 103.651 2.73866 103.992 3.08 104.248C3.848 104.845 4.82933 105.144 6.024 105.144C7.21866 105.144 8.37067 105.187 9.48 105.272C10.1627 105.443 10.76 105.528 11.272 105.528L13.32 105.144L13.576 105.272C13.832 105.101 14.3013 105.016 14.984 105.016C15.6667 105.101 16.0507 105.059 16.136 104.888C16.3067 105.059 16.392 105.144 16.392 105.144C17.3307 104.803 18.3547 104.547 19.464 104.376C20.5733 104.205 21.64 103.992 22.664 103.736C23.176 103.651 23.688 103.48 24.2 103.224C24.712 103.053 25.2667 102.968 25.864 102.968C26.5467 102.541 27.4427 102.243 28.552 102.072C29.576 101.987 30.472 101.773 31.24 101.432C34.2267 100.237 37 99.256 39.56 98.488C42.12 97.8053 44.8507 96.696 47.752 95.16C48.3493 94.904 49.288 94.3493 50.568 93.496C51.848 92.6427 53.0853 91.7467 54.28 90.808C55.56 89.9547 56.4987 89.4 57.096 89.144C59.0587 87.7787 60.552 86.7973 61.576 86.2C62.6 85.6027 63.496 85.048 64.264 84.536C65.032 84.024 66.056 83.2987 67.336 82.36C68.616 81.336 70.4933 79.7573 72.968 77.624L87.176 65.336C88.5413 64.1413 89.5653 63.1173 90.248 62.264C91.016 61.4107 91.7413 60.6 92.424 59.832C93.1067 58.9787 94.0453 58.04 95.24 57.016H94.984C94.8987 57.016 94.856 56.9733 94.856 56.888C94.856 56.8027 94.8133 56.76 94.728 56.76C94.6427 56.76 94.4293 56.9307 94.088 57.272C93.7467 57.6133 93.4907 57.784 93.32 57.784C93.2347 57.784 92.808 57.784 92.04 57.784C91.3573 57.6987 90.9733 57.6987 90.888 57.784L89.992 57.4C89.992 56.5467 90.12 55.6933 90.376 54.84L92.552 51.256C92.7227 51.3413 92.808 51.4267 92.808 51.512C92.808 51.5973 92.8507 51.64 92.936 51.64C93.1067 51.64 93.5333 51.5973 94.216 51.512C94.984 51.3413 95.752 51.2133 96.52 51.128C97.288 51.0427 97.7147 51 97.8 51C97.9707 51 98.3973 51.0427 99.08 51.128C99.7627 51.128 100.232 51.128 100.488 51.128H100.616C101.213 50.7013 101.768 50.3173 102.28 49.976C102.792 49.6347 103.347 49.2933 103.944 48.952C104.2 48.7813 104.456 48.5253 104.712 48.184C105.053 47.8427 105.267 47.6293 105.352 47.544C106.205 46.776 106.76 46.136 107.016 45.624C107.272 45.0267 107.827 44.3013 108.68 43.448C110.387 41.9973 111.752 40.5893 112.776 39.224C113.885 37.7733 115.336 36.3653 117.128 35C117.469 34.744 118.195 34.0613 119.304 32.952C120.413 31.8427 121.523 30.7333 122.632 29.624C123.741 28.5147 124.381 27.96 124.552 27.96C124.723 27.704 125.405 26.9787 126.6 25.784C127.88 24.504 129.288 23.1387 130.824 21.688C132.445 20.152 133.853 18.7867 135.048 17.592C136.328 16.312 137.096 15.544 137.352 15.288C138.12 14.3493 138.845 13.4533 139.528 12.6C140.296 11.7467 141.064 10.8507 141.832 9.91199L145.544 5.56H133.512C131.635 5.56 129.757 5.56 127.88 5.56C126.003 5.56 124.339 5.60266 122.888 5.688C122.205 6.19999 120.968 6.58399 119.176 6.84C117.384 7.01066 115.677 7.22399 114.056 7.48C112.52 7.65067 111.581 7.94933 111.24 8.376C106.291 9.22933 101.256 10.8933 96.136 13.368C91.016 15.8427 86.1093 18.872 81.416 22.456C76.7227 26.04 72.4987 29.9653 68.744 34.232C65.0747 38.4987 62.1307 42.8933 59.912 47.416C57.7787 51.8533 56.712 56.1627 56.712 60.344C56.712 61.0267 56.6267 61.0693 56.456 60.472C56.2853 59.7893 56.072 58.8933 55.816 57.784C55.6453 56.5893 55.432 55.48 55.176 54.456C54.92 53.432 54.7067 52.92 54.536 52.92L53 52.024C52.6587 51.6827 52.488 51.2133 52.488 50.616C52.488 50.0187 52.616 49.3787 52.872 48.696C53.128 48.0133 53.384 47.3733 53.64 46.776C55.0907 43.6187 57.096 40.4613 59.656 37.304C62.3013 34.0613 65.2027 30.9893 68.36 28.088C71.6027 25.1013 74.76 22.4987 77.832 20.28C79.2827 19.3413 80.7333 18.488 82.184 17.72C83.6347 16.952 85.0427 16.1413 86.408 15.288C86.5787 15.2027 87.1333 14.9467 88.072 14.52C89.0107 14.008 89.9067 13.5387 90.76 13.112C91.6987 12.6 92.2107 12.3013 92.296 12.216C93.1493 11.96 94.344 11.5333 95.88 10.936C97.416 10.2533 99.08 9.57066 100.872 8.88799C102.749 8.20533 104.456 7.608 105.992 7.09599C107.528 6.58399 108.723 6.328 109.576 6.328H109.704C110.301 5.816 111.709 5.304 113.928 4.792C116.232 4.28 118.749 3.81066 121.48 3.384C124.296 2.95733 126.856 2.65866 129.16 2.488C131.549 2.232 133.085 2.14666 133.768 2.23199L133.896 2.104C134.237 1.93333 134.707 1.848 135.304 1.848C135.987 1.848 136.456 1.89067 136.712 1.976C137.139 1.89067 137.48 1.848 137.736 1.848C137.992 1.76266 138.291 1.71999 138.632 1.71999C139.059 1.71999 139.443 1.76266 139.784 1.848C140.211 1.848 140.595 1.89067 140.936 1.976C141.107 1.89067 141.363 1.848 141.704 1.848C142.216 1.848 142.685 1.93333 143.112 2.104C143.624 2.18933 144.051 2.27466 144.392 2.35999C144.819 2.104 145.16 1.976 145.416 1.976C145.843 1.976 146.397 2.14666 147.08 2.488C147.251 2.31733 147.549 2.23199 147.976 2.23199H148.744C149.171 1.80533 149.555 1.46399 149.896 1.20799C150.323 0.951996 150.707 0.781331 151.048 0.695999C152.499 0.269333 153.608 0.0559998 154.376 0.0559998C155.912 0.0559998 156.424 0.781331 155.912 2.23199C157.107 2.23199 158.301 2.27466 159.496 2.35999C160.691 2.35999 161.245 2.44533 161.16 2.616C161.16 2.616 161.629 2.744 162.568 3C163.592 3.17066 164.104 3.72533 164.104 4.66399C164.104 5.09066 163.891 5.60266 163.464 6.2C163.123 6.79733 162.483 7.52266 161.544 8.376C161.203 8.632 160.819 8.75999 160.392 8.75999C159.88 8.75999 159.368 8.632 158.856 8.376C158.515 8.71733 158.173 9.10133 157.832 9.528C157.576 9.86933 157.235 10.0827 156.808 10.168C156.723 10.3387 156.381 10.7653 155.784 11.448C155.272 12.0453 154.931 12.3867 154.76 12.472C154.675 12.8133 154.205 13.4533 153.352 14.392C152.584 15.2453 152.029 15.8853 151.688 16.312C150.835 17.336 149.683 18.744 148.232 20.536C146.867 22.2427 145.8 23.6933 145.032 24.888C144.861 25.144 144.691 25.4427 144.52 25.784C144.349 26.1253 144.179 26.424 144.008 26.68C143.837 26.8507 143.496 27.448 142.984 28.472C142.472 29.4107 141.917 30.4773 141.32 31.672C140.723 32.8667 140.168 33.976 139.656 35C139.144 35.9387 138.845 36.4933 138.76 36.664C137.992 38.0293 137.096 39.992 136.072 42.552C135.133 45.0267 134.152 47.8 133.128 50.872H135.176C135.773 50.872 136.371 50.9147 136.968 51C137.651 51 138.205 51.0427 138.632 51.128C138.717 51.128 138.76 51.1707 138.76 51.256C138.845 51.3413 138.931 51.384 139.016 51.384C139.443 51.384 139.912 51.5973 140.424 52.024C140.936 52.4507 140.979 52.664 140.552 52.664C140.467 52.664 140.424 52.6213 140.424 52.536C140.424 52.4507 140.339 52.408 140.168 52.408C139.997 52.408 139.699 52.4933 139.272 52.664C138.845 52.7493 138.419 52.792 137.992 52.792L137.736 53.176C137.651 53.176 137.608 53.1333 137.608 53.048C137.608 52.8773 137.523 52.792 137.352 52.792C137.267 52.792 136.968 52.8347 136.456 52.92C136.029 53.0053 135.603 53.0907 135.176 53.176L134.792 53.816C134.451 53.816 133.981 53.816 133.384 53.816C132.872 53.7307 132.488 53.688 132.232 53.688C130.781 58.2107 129.459 62.904 128.264 67.768C127.155 72.632 126.515 76.8987 126.344 80.568V82.104C126.344 83.64 126.472 84.6213 126.728 85.048C127.069 85.56 127.539 85.816 128.136 85.816C130.099 85.816 131.72 85.2187 133 84.024C134.365 82.9147 135.859 81.464 137.48 79.672C137.907 79.2453 138.376 78.8187 138.888 78.392C139.4 77.88 139.827 77.3253 140.168 76.728C140.68 76.3867 141.107 75.96 141.448 75.448C142.387 74.68 143.411 73.5707 144.52 72.12C145.715 70.6693 146.568 69.6453 147.08 69.048C147.251 68.8773 147.72 68.3227 148.488 67.384C149.256 66.4453 149.725 65.9333 149.896 65.848C150.237 65.5067 150.664 64.9947 151.176 64.312C151.688 63.6293 152.2 63.032 152.712 62.52C153.139 62.0933 153.608 61.88 154.12 61.88C154.632 61.7947 154.589 62.0933 153.992 62.776C153.139 63.8 152.029 65.1653 150.664 66.872C149.384 68.4933 148.147 70.072 146.952 71.608C145.843 73.144 145.032 74.2107 144.52 74.808C144.435 74.808 144.093 75.2347 143.496 76.088C142.899 76.856 142.301 77.6667 141.704 78.52C141.107 79.3733 140.723 79.9707 140.552 80.312C140.211 80.9093 139.357 81.8907 137.992 83.256C136.627 84.6213 135.261 85.9013 133.896 87.096C132.531 88.376 131.592 89.0587 131.08 89.144H130.568C129.885 89.144 129.288 88.888 128.776 88.376C128.264 87.9493 127.88 87.736 127.624 87.736C127.453 87.0533 127.069 86.5413 126.472 86.2C125.875 85.944 125.363 85.6453 124.936 85.304C124.765 85.1333 124.552 84.92 124.296 84.664C124.125 84.408 123.955 84.152 123.784 83.896C123.357 83.384 122.931 83.0853 122.504 83C122.163 83 121.864 82.9573 121.608 82.872C121.352 82.7013 121.139 82.232 120.968 81.464C120.712 80.0987 120.371 78.904 119.944 77.88C119.517 76.856 119.389 75.576 119.56 74.04C119.645 73.6987 119.731 73.1867 119.816 72.504C119.987 71.8213 120.072 71.352 120.072 71.096H120.2C120.2 71.6933 120.115 72.248 119.944 72.76C119.859 73.272 119.859 73.8693 119.944 74.552H120.072L119.944 74.424C120.115 74.0827 120.371 73.272 120.712 71.992C121.053 70.712 121.224 69.9013 121.224 69.56C121.139 69.56 121.096 69.5173 121.096 69.432L120.968 69.56C120.968 69.9867 120.925 70.2853 120.84 70.456C120.669 70.1147 120.584 69.8587 120.584 69.688C120.499 69.0907 120.669 68.0667 121.096 66.616C121.523 65.08 121.693 64.056 121.608 63.544L121.48 62.648C121.821 62.136 122.12 61.368 122.376 60.344C122.717 59.2347 122.973 58.3813 123.144 57.784C123.4 56.8453 123.656 56.2053 123.912 55.864C124.253 55.5227 124.339 54.968 124.168 54.2C123.229 54.2 122.291 54.2427 121.352 54.328C120.499 54.328 119.859 54.328 119.432 54.328H119.304C119.219 54.328 119.133 54.2853 119.048 54.2C118.963 54.1147 118.835 54.072 118.664 54.072L118.536 54.2C118.451 54.2 118.28 54.2853 118.024 54.456C117.768 54.5413 117.555 54.584 117.384 54.584H104.072C103.475 55.1813 102.963 55.7787 102.536 56.376C102.109 56.888 101.555 57.4 100.872 57.912L97.8 60.472C97.032 61.0693 96.264 61.7093 95.496 62.392C94.8133 63.0747 94.088 63.7573 93.32 64.44L91.528 65.848L89.48 67.768L88.072 68.664L83.976 72.504C83.5493 72.9307 83.08 73.3573 82.568 73.784C82.056 74.1253 81.5867 74.5093 81.16 74.936C80.5627 75.448 79.496 76.3013 77.96 77.496C76.5093 78.6907 75.1013 79.7573 73.736 80.696C71.8587 82.0613 70.024 83.4267 68.232 84.792C66.5253 86.2427 64.904 87.4373 63.368 88.376C61.2347 89.7413 59.656 90.7227 58.632 91.32C57.6933 91.9173 57.0107 92.3013 56.584 92.472C56.1573 92.6427 55.7733 92.7707 55.432 92.856C55.176 93.0267 54.7067 93.2827 54.024 93.624C53.3413 94.0507 52.1893 94.776 50.568 95.8C49.032 96.7387 47.4533 97.6347 45.832 98.488C44.2107 99.3413 42.5893 100.152 40.968 100.92C40.6267 101.091 40.0293 101.389 39.176 101.816C38.3227 102.243 37.7253 102.456 37.384 102.456L34.952 103.608C34.6107 103.693 34.2693 103.779 33.928 103.864C33.5013 103.949 33.0747 104.077 32.648 104.248C32.0507 104.419 31.496 104.589 30.984 104.76C30.3867 104.931 29.7893 105.101 29.192 105.272C28.68 105.357 28.2107 105.485 27.784 105.656C27.272 105.912 26.76 105.997 26.248 105.912C25.992 106.083 25.3093 106.296 24.2 106.552C23.0907 106.808 22.3227 106.936 21.896 106.936L17.8 107.832C17.4587 107.917 17.16 107.917 16.904 107.832C16.5627 107.832 16.264 107.875 16.008 107.96ZM109.192 51H120.968L121.096 50.872C121.181 50.7013 121.608 50.616 122.376 50.616C122.803 50.616 123.229 50.616 123.656 50.616C124.168 50.616 124.637 50.6587 125.064 50.744C126.173 47.3307 127.368 44.1307 128.648 41.144C128.819 40.7173 128.989 40.376 129.16 40.12C129.331 39.7787 129.501 39.4373 129.672 39.096C130.099 38.1573 130.44 37.2613 130.696 36.408C131.037 35.4693 131.379 34.5733 131.72 33.72C132.488 32.0987 133.299 30.4347 134.152 28.728C135.005 26.936 135.859 25.3573 136.712 23.992L137.608 22.2L138.12 21.56C137.864 21.816 137.565 22.072 137.224 22.328C136.968 22.584 136.712 22.8827 136.456 23.224L116.104 44.088C115.763 44.344 115.336 44.6 114.824 44.856C114.397 45.0267 114.056 45.3253 113.8 45.752L113.16 46.648L109.448 50.744L109.192 51Z" fill="#D05156"/>
</svg>
